<svg width="51" height="51" viewBox="0 0 51 51" fill="none" xmlns="http://www.w3.org/2000/svg">
<path d="M42.5 11H8.5C7.11929 11 6 12.1193 6 13.5C6 14.8807 7.11929 16 8.5 16H42.5C43.8807 16 45 14.8807 45 13.5C45 12.1193 43.8807 11 42.5 11Z" fill="#3B090D"/>
<path d="M42.5 23H8.5C7.11929 23 6 24.1193 6 25.5C6 26.8807 7.11929 28 8.5 28H42.5C43.8807 28 45 26.8807 45 25.5C45 24.1193 43.8807 23 42.5 23Z" fill="#3B090D"/>
<path d="M42.5 35H8.5C7.11929 35 6 36.1193 6 37.5C6 38.8807 7.11929 40 8.5 40H42.5C43.8807 40 45 38.8807 45 37.5C45 36.1193 43.8807 35 42.5 35Z" fill="#3B090D"/>
</svg>
