<svg width="51" height="51" viewBox="0 0 51 51" fill="none" xmlns="http://www.w3.org/2000/svg">
<path d="M39.2889 35.7528L15.2473 11.7111C14.2709 10.7348 12.688 10.7348 11.7117 11.7111C10.7354 12.6874 10.7354 14.2703 11.7117 15.2467L35.7534 39.2883C36.7297 40.2646 38.3126 40.2646 39.2889 39.2883C40.2652 38.312 40.2652 36.7291 39.2889 35.7528Z" fill="#3B090D"/>
<path d="M15.2472 39.2889L39.2888 15.2473C40.2651 14.2709 40.2651 12.688 39.2888 11.7117C38.3125 10.7354 36.7296 10.7354 35.7533 11.7117L11.7117 35.7534C10.7354 36.7297 10.7354 38.3126 11.7117 39.2889C12.688 40.2652 14.2709 40.2652 15.2472 39.2889Z" fill="#3B090D"/>
</svg>
