<svg width="28" height="28" viewBox="0 0 28 28" fill="none" xmlns="http://www.w3.org/2000/svg">
<path d="M1 7.33333C1 6.44928 1.34241 5.60143 1.9519 4.97631C2.5614 4.35119 3.38805 4 4.25 4H23.75C24.612 4 25.4386 4.35119 26.0481 4.97631C26.6576 5.60143 27 6.44928 27 7.33333V20.6667C27 21.5507 26.6576 22.3986 26.0481 23.0237C25.4386 23.6488 24.612 24 23.75 24H4.25C3.38805 24 2.5614 23.6488 1.9519 23.0237C1.34241 22.3986 1 21.5507 1 20.6667V7.33333ZM4.25 5.66667C3.81902 5.66667 3.4057 5.84226 3.10095 6.15482C2.7962 6.46738 2.625 6.89131 2.625 7.33333V7.695L14 14.695L25.375 7.695V7.33333C25.375 6.89131 25.2038 6.46738 24.899 6.15482C24.5943 5.84226 24.181 5.66667 23.75 5.66667H4.25ZM25.375 9.63833L17.6432 14.3967L25.375 19.19V9.64V9.63833ZM25.3197 21.1017L16.0654 15.3667L14 16.6383L11.933 15.3667L2.68025 21.1C2.7732 21.454 2.97738 21.7668 3.26117 21.9897C3.54496 22.2127 3.89251 22.3335 4.25 22.3333H23.75C24.1073 22.3336 24.4547 22.213 24.7384 21.9904C25.0222 21.7678 25.2265 21.4554 25.3197 21.1017ZM2.625 19.19L10.3567 14.3967L2.625 9.63833V19.1883V19.19Z" fill="#665653"/>
</svg>
