<svg width="89" height="66" viewBox="0 0 89 66" fill="none" xmlns="http://www.w3.org/2000/svg">
<path fill-rule="evenodd" clip-rule="evenodd" d="M69.9303 0.663828C63.8355 3.18939 62.2377 3.94348 60.5938 5.06983C59.5227 5.80392 58.5588 6.54039 58.4513 6.70697C58.3349 6.88728 57.7963 6.65115 57.1151 6.12126C55.6728 4.99908 52.9742 3.73242 50.8276 3.17029C46.486 2.03348 42.8535 3.1058 38.6505 6.76578C36.2853 8.82534 31.9755 14.7589 29.5435 19.304C27.8037 22.555 26.4363 24.8003 24.8661 26.9831C23.8499 28.3961 23.2269 29.6777 22.7622 31.3118L22.1021 33.6335L20.6275 33.7293C18.5599 33.8633 13.7901 33.2669 11.2301 32.5537C8.85308 31.8913 5.04775 30.0123 3.3718 28.6731C2.14097 27.69 1.82858 27.5805 2.40554 28.3346C6.56127 33.7669 11.636 36.4316 18.9679 37.0308C21.1002 37.2051 21.2261 37.2547 21.1385 37.8875C21.059 38.4625 21.1813 38.5592 21.9869 38.5592C24.2265 38.5592 31.2281 36.5307 35.0358 34.7789C37.24 33.7648 37.2703 33.7601 38.5023 34.2332C40.2754 34.9139 42.0268 36.2707 42.9574 37.6845C43.8791 39.0846 43.8844 39.0772 41.2752 40.0796C35.9165 42.1386 28.8873 43.759 23.8256 44.102C20.2459 44.3447 20.2394 44.3528 20.6735 47.9128L20.9345 50.0526L22.7162 49.9905L24.4979 49.9284L22.8647 50.4771C21.434 50.9581 21.2446 51.1136 21.3363 51.7301C21.4595 52.5573 22.5576 55.6393 22.827 55.9149C22.9294 56.0193 23.7457 55.8602 24.641 55.5611C25.5363 55.262 26.3173 55.0661 26.3763 55.1256C26.4357 55.185 25.9051 55.6131 25.1978 56.0764C24.4901 56.5397 23.7852 57.009 23.6314 57.1188C23.3383 57.3284 24.4014 58.9249 25.9217 60.5588L26.8087 61.512L27.8061 60.7475C28.8769 59.9265 29.1943 60.2024 28.2097 61.0982C27.883 61.3953 27.6158 61.801 27.6158 61.9995C27.6158 62.4151 29.319 63.6435 30.9846 64.4289C32.2276 65.0153 32.0872 65.0788 33.1761 63.4378C33.4816 62.9775 33.4935 63.0244 33.2503 63.7298C32.7538 65.1708 32.8773 65.3654 34.5263 65.7362C36.8421 66.2574 41.0661 65.9753 43.1302 65.1618C45.5049 64.2256 47.8472 61.9959 49.0629 59.5145C49.9311 57.7419 50.035 57.2571 50.035 54.9808C50.035 52.7018 49.9314 52.2203 49.0566 50.4321C47.5324 47.3166 45.1791 45.6729 42.2034 45.6451C40.3229 45.6275 38.206 46.4228 37.1269 47.5524C36.7542 47.9423 36.1173 48.9779 35.7114 49.8535C35.1026 51.1664 34.9945 51.7811 35.0946 53.3603C35.26 55.971 35.4943 56.1265 37.5272 54.973C39.0763 54.0941 39.1969 53.9473 39.201 52.9349C39.2037 52.3349 39.3154 51.6701 39.4493 51.4581C39.8662 50.7972 41.3423 50.5452 42.2156 50.9861C43.7683 51.7698 44.1006 55.1751 42.8033 57.0069C41.4296 58.9464 37.3146 59.5584 34.9675 58.1721C30.9015 55.7701 30.1858 50.3816 33.2387 45.1573C33.9989 43.8566 34.1108 43.7895 36.8326 43.0017C38.3779 42.5545 40.5417 41.8595 41.6416 41.4574C43.5774 40.7498 43.7 40.7409 45.5019 41.1752C47.5535 41.6699 52.0911 41.8254 53.8033 41.4597C54.8411 41.2379 54.9465 41.1027 55.7848 38.9175C56.2715 37.6481 56.9084 35.4697 57.2 34.0765C57.8346 31.0428 57.9061 25.6615 57.3419 23.3978C56.9595 21.8627 56.9714 21.7851 57.7713 20.5617C59.6934 17.6233 65.1679 12.9946 68.2294 11.7199C69.1294 11.3449 69.1909 11.3772 71.6775 13.5299C74.1457 15.667 74.2095 15.7551 74.2244 17.0651C74.2493 19.2811 75.0606 24.048 75.7008 25.7421C76.4619 27.756 76.2368 28.0769 75.4148 26.1493C74.4916 23.9844 73.7024 20.8958 73.4722 18.5488L73.2676 16.4605L71.2624 14.6729C70.1592 13.6899 69.0688 12.8856 68.8387 12.8856C68.1768 12.8856 63.7898 15.7085 62.1545 17.1869C61.3364 17.9263 60.1605 19.2706 59.5414 20.1743C58.4169 21.8156 58.4163 21.8189 58.7382 23.5459C59.828 29.3958 59.2878 34.5574 56.9648 40.4868L56.0342 42.8625L56.8936 44.517C58.1054 46.8512 60.8705 50.4428 62.4999 51.8002C63.8646 52.9367 66.9362 54.6688 67.6004 54.676C67.8828 54.6792 70.9696 50.2213 70.9696 49.8102C70.9696 49.741 70.4666 49.3496 69.8519 48.9406C68.3577 47.9465 65.3867 45.1985 64.9799 44.4346C64.8006 44.0976 65.4402 44.5036 66.4011 45.3365C67.3623 46.1697 68.9302 47.3491 69.8857 47.9578L71.6229 49.0642L73.4921 47.0211L75.3614 44.9776L72.7153 42.4855C70.4683 40.3692 67.1479 36.6179 66.4112 35.3635C66.2951 35.1658 67.6414 36.4421 69.4029 38.1995C71.1644 39.9572 73.4538 42.0338 74.4904 42.8142L76.3754 44.2328L77.4922 43.3438C81.0538 40.5077 86.2551 33.9434 87.5299 30.6753L88.1015 29.2099L86.6233 27.2423C83.9469 23.6799 82.1076 18.8479 81.1824 12.9483C80.7589 10.2502 80.56 9.63734 79.9082 9.02357C77.2422 6.51323 71.6104 1.31373 71.1151 0.90504C70.7124 0.573075 70.3347 0.496353 69.9303 0.663828ZM42.8454 18.4383C43.3936 18.7013 44.0136 19.1924 44.2233 19.5297C44.5971 20.1316 44.5888 20.131 43.8004 19.5076C41.2975 17.5281 37.3894 18.9094 36.5422 22.0726C36.046 23.9256 36.5378 25.432 38.0691 26.75C39.3857 27.8829 39.3656 28.1226 38.0207 27.3238C36.6346 26.5007 35.6333 24.6328 35.6333 22.8709C35.6333 19.1903 39.4811 16.8256 42.8454 18.4383ZM41.9965 21.7135C43.0554 22.7783 42.2055 24.831 40.7095 24.8224C39.6509 24.8161 39.2123 24.4788 38.9353 23.4581C38.5917 22.1929 39.2818 21.2445 40.5459 21.2445C41.0869 21.2445 41.7396 21.4555 41.9965 21.7135ZM0 31.2524C0 31.5038 1.60944 34.2735 2.33754 35.2754C4.66113 38.4721 8.77915 41.2057 13.214 42.4956C15.3274 43.1103 16.1956 43.1847 21.083 43.1712C25.876 43.1581 27.0552 43.0542 30.3307 42.355C34.0316 41.5654 41.6719 39.1754 42.2034 38.641C42.5901 38.2523 40.27 36.0244 38.7123 35.2882L37.4345 34.6846L35.2719 35.6632C34.0823 36.2014 32.2831 36.9666 31.2735 37.3636C30.2639 37.7604 29.7519 38.0427 29.7519 38.0427C29.7519 38.0427 29.2852 38.3244 29.1055 38.3485C28.1852 38.472 27.7106 38.828 26.7825 38.8578C26.62 38.863 26.5397 38.8578 26.3662 38.8578C25.8965 38.8578 22.1909 39.4978 21.6769 39.6677C20.8279 39.9483 16.1742 39.7107 13.8545 39.2685C8.92643 38.3285 4.58808 36.0468 1.55896 32.8018C0.701381 31.8832 0 31.1861 0 31.2524Z" fill="#665653"/>
</svg>
