<svg width="28" height="28" viewBox="0 0 28 28" fill="none" xmlns="http://www.w3.org/2000/svg">
<path d="M17.6665 5.66667C18.1086 5.66667 18.5325 5.84227 18.8451 6.15483C19.1576 6.46739 19.3332 6.89131 19.3332 7.33334V20.6667C19.3332 21.1087 19.1576 21.5327 18.8451 21.8452C18.5325 22.1578 18.1086 22.3334 17.6665 22.3334H10.9998C10.5578 22.3334 10.1339 22.1578 9.82133 21.8452C9.50877 21.5327 9.33318 21.1087 9.33318 20.6667V7.33334C9.33318 6.89131 9.50877 6.46739 9.82133 6.15483C10.1339 5.84227 10.5578 5.66667 10.9998 5.66667H17.6665ZM10.9998 4C10.1158 4 9.26794 4.35119 8.64282 4.97631C8.01769 5.60144 7.6665 6.44929 7.6665 7.33334V20.6667C7.6665 21.5508 8.01769 22.3986 8.64282 23.0237C9.26794 23.6489 10.1158 24.0001 10.9998 24.0001H17.6665C18.5506 24.0001 19.3984 23.6489 20.0236 23.0237C20.6487 22.3986 20.9999 21.5508 20.9999 20.6667V7.33334C20.9999 6.44929 20.6487 5.60144 20.0236 4.97631C19.3984 4.35119 18.5506 4 17.6665 4H10.9998Z" fill="#665653"/>
<path d="M14.3334 20.6667C14.7754 20.6667 15.1993 20.4911 15.5119 20.1785C15.8245 19.8659 16.0001 19.442 16.0001 19C16.0001 18.558 15.8245 18.134 15.5119 17.8215C15.1993 17.5089 14.7754 17.3333 14.3334 17.3333C13.8914 17.3333 13.4674 17.5089 13.1549 17.8215C12.8423 18.134 12.6667 18.558 12.6667 19C12.6667 19.442 12.8423 19.8659 13.1549 20.1785C13.4674 20.4911 13.8914 20.6667 14.3334 20.6667ZM3.66502 7.42995C3.76178 7.48114 3.84751 7.5509 3.9173 7.63523C3.98709 7.71957 4.03958 7.81683 4.07178 7.92146C4.10397 8.02609 4.11523 8.13603 4.10492 8.24502C4.09461 8.354 4.06293 8.45988 4.01169 8.55662C3.12543 10.234 2.66363 12.1029 2.66669 14C2.66669 15.9666 3.15335 17.82 4.01169 19.4433C4.11512 19.6387 4.13671 19.8672 4.0717 20.0785C4.00668 20.2897 3.8604 20.4666 3.66502 20.57C3.46965 20.6734 3.24118 20.695 3.02989 20.63C2.8186 20.565 2.64179 20.4187 2.53835 20.2233C1.52505 18.3056 0.996887 16.1689 1.00001 14C1.00001 11.755 1.55668 9.63495 2.53835 7.77661C2.58955 7.67985 2.65931 7.59413 2.74364 7.52434C2.82798 7.45454 2.92524 7.40205 3.02987 7.36986C3.13449 7.33767 3.24444 7.3264 3.35342 7.33671C3.4624 7.34702 3.56829 7.3787 3.66502 7.42995ZM25.0018 7.42995C25.0985 7.3787 25.2044 7.34702 25.3134 7.33671C25.4223 7.3264 25.5323 7.33767 25.6369 7.36986C25.7415 7.40205 25.8388 7.45454 25.9231 7.52434C26.0075 7.59413 26.0772 7.67985 26.1284 7.77661C27.1418 9.69429 27.67 11.831 27.6668 14C27.67 16.1689 27.1418 18.3056 26.1284 20.2233C26.025 20.4187 25.8482 20.565 25.6369 20.63C25.4256 20.695 25.1971 20.6734 25.0018 20.57C24.8064 20.4666 24.6601 20.2897 24.5951 20.0785C24.5301 19.8672 24.5517 19.6387 24.6551 19.4433C25.5414 17.766 26.0032 15.897 26.0001 14C26.0001 12.0333 25.5134 10.18 24.6551 8.55662C24.6038 8.45988 24.5722 8.354 24.5619 8.24502C24.5515 8.13603 24.5628 8.02609 24.595 7.92146C24.6272 7.81683 24.6797 7.71957 24.7495 7.63523C24.8193 7.5509 24.905 7.48114 25.0018 7.42995ZM6.09503 9.88995C6.19706 9.92974 6.29025 9.98924 6.36927 10.0651C6.44829 10.1409 6.51159 10.2315 6.55555 10.3318C6.59951 10.4321 6.62327 10.5401 6.62547 10.6496C6.62767 10.7591 6.60826 10.868 6.56837 10.97C6.19159 11.9357 5.99883 12.9634 6.00003 14C6.00003 15.07 6.20003 16.0916 6.5667 17.03C6.61321 17.133 6.63828 17.2444 6.64039 17.3574C6.6425 17.4704 6.6216 17.5826 6.57896 17.6873C6.53633 17.7919 6.47285 17.8868 6.39239 17.9662C6.31193 18.0456 6.21617 18.1077 6.11093 18.1489C6.00568 18.1901 5.89316 18.2095 5.78021 18.2058C5.66725 18.2021 5.55622 18.1756 5.45386 18.1276C5.35151 18.0797 5.25997 18.0115 5.18482 17.9271C5.10966 17.8427 5.05246 17.7439 5.01669 17.6366C4.56414 16.4776 4.33237 15.2442 4.33336 14C4.33336 12.7183 4.57503 11.4916 5.01669 10.3633C5.09706 10.1576 5.25575 9.99227 5.45793 9.90352C5.66011 9.81477 5.88925 9.80989 6.09503 9.88995ZM22.5718 9.88995C22.6737 9.85005 22.7826 9.83065 22.8921 9.83285C23.0016 9.83505 23.1096 9.85881 23.2099 9.90277C23.3102 9.94673 23.4008 10.01 23.4766 10.089C23.5525 10.1681 23.612 10.2613 23.6518 10.3633C24.0918 11.4916 24.3334 12.7183 24.3334 14C24.3334 15.2816 24.0918 16.5083 23.6501 17.6366C23.5622 17.8314 23.4028 17.9849 23.2049 18.0655C23.0071 18.1461 22.7858 18.1476 22.5869 18.0697C22.3879 17.9919 22.2265 17.8405 22.1359 17.647C22.0453 17.4535 22.0325 17.2326 22.1001 17.03C22.4668 16.0916 22.6668 15.07 22.6668 14C22.6668 12.93 22.4668 11.9083 22.1001 10.97C22.0194 10.7642 22.0238 10.5348 22.1122 10.3323C22.2007 10.1297 22.366 9.97062 22.5718 9.88995Z" fill="#665653"/>
</svg>
