<svg width="28" height="28" viewBox="0 0 28 28" fill="none" xmlns="http://www.w3.org/2000/svg">
<path fill-rule="evenodd" clip-rule="evenodd" d="M26.1937 2.16426C26.1016 2.19856 24.6186 2.85536 23.8687 3.19396C23.5662 3.33056 23.1049 3.53781 22.8437 3.65451C22.5824 3.77121 21.0299 4.46896 19.3937 5.20511C17.7574 5.94121 16.2049 6.63906 15.9437 6.75591C14.3134 7.48501 13.9615 7.64266 13.7758 7.72711C13.6619 7.77891 12.7587 8.18526 11.7687 8.63006C10.7787 9.07486 9.6537 9.58086 9.2687 9.75451C7.4475 10.576 3.004 12.5756 2.4687 12.8146C1.96715 13.0386 1.82645 13.127 1.61125 13.3534C1.2871 13.6945 1.1705 14.0121 1.2062 14.4567C1.23955 14.8723 1.43135 15.2215 1.7642 15.4729C1.90415 15.5786 3.06895 16.2458 4.3526 16.9556L6.68645 18.2462L6.71625 18.4759C6.73265 18.6022 6.8912 20.2293 7.0686 22.0917C7.2694 24.1991 7.4151 25.5162 7.4545 25.5792C7.56205 25.7515 7.8207 25.8459 8.01205 25.7827C8.1762 25.7286 8.4122 25.4631 11.2116 22.1842C11.6476 21.6734 12.0121 21.2473 12.0215 21.2373C12.0308 21.2273 12.7878 21.6349 13.7036 22.1432C14.6194 22.6515 15.5487 23.1638 15.7687 23.2815C15.9887 23.3993 16.2474 23.5439 16.3437 23.603C16.4399 23.662 16.6874 23.7973 16.8937 23.9036C17.0999 24.0099 17.4149 24.1853 17.5937 24.2933C18.1693 24.6411 20.0119 25.6534 20.1931 25.7214C20.5054 25.8386 20.9909 25.812 21.3239 25.6596C21.6588 25.5063 21.8049 25.385 21.9738 25.1204C22.1249 24.8836 22.1703 24.7046 22.5975 22.6631C22.9794 20.8383 22.9828 20.7836 22.7257 20.6035C22.566 20.4917 22.2713 20.5115 22.1167 20.6446C21.9947 20.7495 21.9524 20.908 21.5885 22.6236C21.3709 23.6493 21.1688 24.5337 21.1393 24.5888C21.0686 24.7208 20.762 24.846 20.6056 24.8067C20.5374 24.7896 19.95 24.481 19.3002 24.1209C18.6504 23.7609 18.0174 23.4103 17.8937 23.3418C15.8487 22.2106 12.8044 20.5087 12.7577 20.4706C12.7122 20.4335 12.8014 20.292 13.1077 19.9156C13.3337 19.6377 13.5637 19.3492 13.6187 19.2743C13.7116 19.1478 15.0486 17.479 15.236 17.2555C15.3387 17.1331 18.402 13.3024 18.7318 12.884C19.4812 11.9333 25.3478 4.63051 25.3621 4.63051C25.3716 4.63051 25.3136 4.93991 25.2332 5.31801C25.0659 6.10501 23.6008 13.0664 23.2628 14.6805C23.0966 15.4741 23.0487 15.7946 23.0798 15.9046C23.1355 16.1018 23.4122 16.2895 23.5876 16.2489C23.8812 16.1811 23.9994 16.0443 24.0614 15.701C24.1046 15.4619 24.3221 14.4107 24.5105 13.5305C25.2908 9.88471 26.7937 2.68731 26.7937 2.59581C26.7937 2.35986 26.4098 2.08376 26.1937 2.16426ZM22.7419 4.84981C22.7016 4.88791 19.1736 7.71331 14.9018 11.1285C9.96565 15.0749 7.10845 17.3277 7.06215 17.3099C7.02205 17.2945 6.36585 16.9362 5.60395 16.5135C4.84205 16.0909 4.0612 15.6603 3.8687 15.5566C3.6762 15.4529 3.4962 15.3514 3.4687 15.331C3.4211 15.2957 3.313 15.2346 2.6158 14.8493C2.22145 14.6314 2.0993 14.4142 2.22375 14.152C2.31875 13.9518 2.51785 13.849 4.4937 12.981C4.91995 12.7938 5.61745 12.4835 6.0437 12.2915C6.46995 12.0994 8.15745 11.3411 9.7937 10.6061C11.4299 9.87121 13.2187 9.06656 13.7687 8.81806C14.3187 8.56951 14.8429 8.33486 14.9336 8.29666C15.0243 8.25841 15.2493 8.15795 15.4336 8.07345C15.8062 7.9025 19.4551 6.26176 20.0437 6.00046C20.2499 5.90891 20.9362 5.59856 21.5687 5.31086C22.2012 5.02311 22.7404 4.78606 22.7669 4.78411C22.7934 4.78211 22.7822 4.81171 22.7419 4.84981ZM17.2646 13.1367C13.5077 17.8287 10.9656 20.9551 9.89935 22.1947C9.0038 23.2358 8.2653 24.0691 8.2583 24.0466C8.2513 24.024 8.155 23.0605 8.0443 21.9055C7.9336 20.7505 7.80705 19.4378 7.76305 18.9884C7.7189 18.5372 7.70225 18.1537 7.72585 18.1321C7.74945 18.1106 9.2537 16.9076 11.0687 15.4588C12.8837 14.01 14.5037 12.7149 14.6687 12.5809C16.0872 11.4284 22.9723 5.94361 22.9851 5.95591C22.9942 5.96461 20.4199 9.19595 17.2646 13.1367Z" fill="#3B090D"/>
</svg>
