<svg width="28" height="28" viewBox="0 0 28 28" fill="none" xmlns="http://www.w3.org/2000/svg">
<path d="M27 13.6652C27 20.66 21.2861 26.3304 14.2363 26.3304C11.9983 26.3304 9.89576 25.7584 8.06651 24.7545L1 27L3.30389 20.2048C2.14169 18.2964 1.47233 16.058 1.47233 13.6652C1.47233 6.67031 7.18684 1 14.2363 1C21.2866 1 27 6.67031 27 13.6652ZM14.2363 3.01702C8.31871 3.01702 3.50524 7.7938 3.50524 13.6652C3.50524 15.9951 4.26473 18.1528 5.54942 19.9081L4.20869 23.8627L8.33258 22.552C10.0269 23.6645 12.0566 24.3133 14.2366 24.3133C20.1533 24.3133 24.9677 19.5371 24.9677 13.6658C24.9677 7.79438 20.1536 3.01702 14.2363 3.01702ZM20.6817 16.5821C20.6028 16.453 20.3946 16.375 20.082 16.2198C19.7688 16.0647 18.2302 15.3133 17.9442 15.2102C17.6573 15.1067 17.4482 15.0547 17.2399 15.3653C17.0316 15.6761 16.4319 16.375 16.249 16.5821C16.0664 16.7898 15.8841 16.8158 15.571 16.6604C15.2584 16.5052 14.2505 16.1771 13.0553 15.1197C12.1254 14.297 11.4974 13.2812 11.3148 12.9701C11.1325 12.6596 11.2957 12.4917 11.452 12.3372C11.593 12.1979 11.7652 11.9746 11.9214 11.7935C12.0783 11.612 12.1303 11.4829 12.234 11.2755C12.3389 11.0684 12.2866 10.8872 12.208 10.7315C12.13 10.5764 11.5037 9.04873 11.2431 8.42704C10.9826 7.80593 10.7223 7.90936 10.5394 7.90936C10.3571 7.90936 10.1482 7.88336 9.93967 7.88336C9.73109 7.88336 9.39193 7.96107 9.10507 8.27162C8.81849 8.58247 8.01047 9.33358 8.01047 10.8609C8.01047 12.3886 9.13107 13.8645 9.28793 14.0714C9.44422 14.2782 11.4517 17.5149 14.6324 18.758C17.8133 20.0005 17.8133 19.586 18.3871 19.534C18.9602 19.4822 20.2377 18.7831 20.4994 18.0586C20.7594 17.3329 20.7594 16.7115 20.6817 16.5821Z" fill="#665653"/>
</svg>
